#N canvas 987 130 418 270 10;
#X obj 47 225 sendOSC;
#X msg 47 57 connect 127.0.0.1 8001;
#X obj 47 28 loadbang;
#X msg 77 147 send /pedal;
#X msg 179 146 send /steerAngle \$1;
#X obj 182 109 hsl 128 15 -1 1 0 0 empty empty empty -2 -8 0 10 -262144
-1 -1 5500 1;
#X text 160 107 -1;
#X text 316 107 +1;
#X connect 1 0 0 0;
#X connect 2 0 1 0;
#X connect 3 0 0 0;
#X connect 4 0 0 0;
#X connect 5 0 4 0;
