#N canvas 323 22 893 734 10;
#X declare -path p;
#X obj 45 59 bng 30 250 50 0 empty empty empty 17 7 0 10 -262144 -1
-1;
#X obj 229 544 hsl 100 15 -1 1 0 0 empty \$0-pan empty -2 -8 0 10 -262144
-1 -1 4950 1;
#X obj 504 380 soundfiler;
#N canvas 0 22 450 278 (subpatch) 0;
#X array mus1 1.44178e+06 float 2;
#X coords 0 1 1.44178e+06 -1 200 40 2 0 0;
#X restore 635 433 graph;
#N canvas 0 22 450 278 (subpatch) 0;
#X array mus2 1.44178e+06 float 2;
#X coords 0 1 1.44178e+06 -1 200 40 2 0 0;
#X restore 634 492 graph;
#X obj 133 599 tabread~ mus2;
#X obj 46 601 tabread~ mus1;
#X obj 45 531 phasor~;
#X floatatom 45 466 10 0 0 0 - - -;
#X obj 52 373 vsl 15 40 0 1 0 0 empty empty empty 0 -9 0 10 -262144
-1 -1 0 1;
#X obj 99 195 timer;
#X obj 44 509 line~;
#X msg 44 488 \$1 20;
#X obj 49 348 line;
#X obj 46 163 t b b b;
#X floatatom 99 217 10 0 0 0 - - -;
#X floatatom 102 288 5 0 0 0 - - -;
#X obj 103 315 pack;
#X obj 101 240 t f f;
#X obj 50 673 output~;
#X floatatom 505 407 15 0 0 0 - - -;
#X floatatom 385 540 5 0 0 0 - - -;
#X obj 384 515 snapshot~;
#X text 448 621 send to oF;
#X obj 390 620 sendOSC;
#X msg 489 568 connect 127.0.0.1 8010;
#X msg 384 572 send /pos \$1;
#X msg 270 579 send /pan \$1;
#X obj 380 481 metro 63;
#X obj 379 459 tgl 15 0 empty empty empty 17 7 0 10 -262144 -1 -1 1
1;
#X floatatom 171 125 5 0 0 0 - - -;
#X obj 293 343 s \$0-pan;
#X msg 36 284 0 2000;
#X obj 36 261 del 1500;
#X obj 48 -3 dumpOSC 8001;
#X obj 145 650 p/scope;
#X obj 250 650 p/scope;
#X obj 481 54 loadbang;
#X msg 379 435 1;
#X obj 305 124 tgl 15 0 empty empty empty 17 7 0 10 -262144 -1 -1 1
1;
#X msg 306 97 1;
#X floatatom 296 286 5 0 0 0 - - -;
#X obj 260 243 +;
#X obj 246 183 f;
#X obj 291 249 clip -1 1;
#X floatatom 265 99 5 0 0 0 - #0-vecLimit -;
#X floatatom 705 56 5 0 1 0 Angle_Limit - #0-vecLimit;
#X floatatom 705 79 5 0 0 0 Sender_Interval - #0-iv;
#X floatatom 428 455 5 0 0 0 - #0-iv -;
#X floatatom 375 117 5 0 0 0 - #0-iv -;
#X text 745 80 Default=63(fps:16);
#X obj 317 149 metro 16.67;
#X obj 215 412 vsl 15 40 0 1 0 0 empty empty empty 0 -9 0 10 -262144
-1 -1 0 1;
#X floatatom 213 459 5 0 0 0 - - -;
#X msg 237 495 send /quick \$1;
#X obj 193 352 * 0;
#X obj 246 211 * 0;
#X obj 193 321 f;
#X obj 193 373 change;
#X obj 192 289 abs;
#X obj 102 263 p/scale 50 2000 1 0;
#X msg 500 521 send /panvec \$1;
#X obj 49 625 p/panning_fx;
#X msg 507 292 read -resize ../bin/data/techno.wav mus1 mus2;
#X msg 527 319 read -resize ../bin/data/se.wav mus1 mus2;
#X msg 465 266 read -resize ../bin/data/sample.wav mus1 mus2;
#X obj 620 138 dumpOSC 8011;
#X floatatom 616 196 5 0 0 0 - - -;
#X obj 616 221 sel 0 1 2;
#X obj 694 222 bng 15 250 50 0 empty empty empty 17 7 0 10 -262144
-1 -1;
#X obj 617 168 route /music_id /movie_id;
#X msg 556 345 read -resize ../bin/data/lumi.wav mus1 mus2;
#X obj 273 397 / 44100;
#X floatatom 271 423 5 0 0 0 - - -;
#X text 311 423 second;
#X obj 45 575 *~ 44100;
#X obj 46 555 *~ 0;
#X msg 170 77 \$1 100;
#X obj 171 98 line;
#X obj 230 130 * 0.02;
#X obj 45 439 * 0.5;
#X msg 128 469 0.008;
#X msg 99 400 0.05;
#X msg 104 424 0.03;
#X msg 127 441 0.05;
#X text 609 11 Parameters:;
#X obj 704 31 tgl 15 0 \$0-print empty print 17 7 0 10 -262144 -1 -1
0 1;
#X obj 223 27 spigot;
#X obj 223 51 print receive_message;
#X obj 256 3 tgl 15 0 empty \$0-print empty 17 7 0 10 -262144 -1 -1
0 1;
#X obj 47 31 route /pedal /steerAngle;
#N canvas 622 230 263 332 limitation 0;
#X obj 52 29 inlet;
#X obj 55 242 outlet;
#X obj 120 31 inlet;
#X obj 56 153 onebang;
#X floatatom 120 79 5 0 0 0 - - -;
#X obj 82 115 del 100;
#X connect 0 0 5 0;
#X connect 0 0 3 0;
#X connect 2 0 4 0;
#X connect 3 0 1 0;
#X connect 4 0 5 1;
#X connect 5 0 3 1;
#X restore 47 132 pd limitation;
#X floatatom 88 96 5 0 0 1 ms - -;
#X obj 381 2 declare -path p;
#X connect 0 0 91 0;
#X connect 1 0 27 0;
#X connect 1 0 62 3;
#X connect 2 0 20 0;
#X connect 2 0 72 0;
#X connect 5 0 62 1;
#X connect 6 0 62 0;
#X connect 7 0 22 0;
#X connect 7 0 76 0;
#X connect 8 0 12 0;
#X connect 9 0 55 1;
#X connect 9 0 56 1;
#X connect 9 0 80 0;
#X connect 10 0 15 0;
#X connect 11 0 7 0;
#X connect 12 0 11 0;
#X connect 13 0 9 0;
#X connect 14 0 33 0;
#X connect 14 1 10 0;
#X connect 14 2 10 1;
#X connect 15 0 18 0;
#X connect 16 0 17 0;
#X connect 17 0 13 0;
#X connect 18 0 60 0;
#X connect 18 1 17 1;
#X connect 21 0 26 0;
#X connect 22 0 21 0;
#X connect 25 0 24 0;
#X connect 26 0 24 0;
#X connect 27 0 24 0;
#X connect 28 0 22 0;
#X connect 29 0 28 0;
#X connect 30 0 59 0;
#X connect 30 0 61 0;
#X connect 30 0 79 0;
#X connect 32 0 13 0;
#X connect 33 0 32 0;
#X connect 34 0 87 0;
#X connect 34 0 90 0;
#X connect 37 0 25 0;
#X connect 37 0 65 0;
#X connect 37 0 38 0;
#X connect 37 0 40 0;
#X connect 38 0 29 0;
#X connect 39 0 51 0;
#X connect 40 0 39 0;
#X connect 41 0 31 0;
#X connect 41 0 42 1;
#X connect 42 0 44 0;
#X connect 43 0 56 0;
#X connect 44 0 41 0;
#X connect 45 0 79 1;
#X connect 48 0 28 1;
#X connect 49 0 51 1;
#X connect 51 0 43 0;
#X connect 51 0 57 0;
#X connect 52 0 53 0;
#X connect 53 0 54 0;
#X connect 53 0 62 2;
#X connect 54 0 24 0;
#X connect 55 0 58 0;
#X connect 56 0 42 0;
#X connect 57 0 55 0;
#X connect 58 0 52 0;
#X connect 59 0 57 1;
#X connect 60 0 16 0;
#X connect 61 0 24 0;
#X connect 62 0 19 0;
#X connect 62 0 35 0;
#X connect 62 1 19 1;
#X connect 62 1 36 0;
#X connect 63 0 2 0;
#X connect 64 0 2 0;
#X connect 65 0 2 0;
#X connect 66 0 70 0;
#X connect 67 0 68 0;
#X connect 68 0 65 0;
#X connect 68 0 82 0;
#X connect 68 1 63 0;
#X connect 68 1 83 0;
#X connect 68 2 64 0;
#X connect 68 2 84 0;
#X connect 69 0 71 0;
#X connect 69 0 81 0;
#X connect 70 0 67 0;
#X connect 70 1 69 0;
#X connect 71 0 2 0;
#X connect 72 0 73 0;
#X connect 73 0 76 1;
#X connect 75 0 5 0;
#X connect 75 0 6 0;
#X connect 76 0 75 0;
#X connect 77 0 78 0;
#X connect 78 0 30 0;
#X connect 79 0 43 1;
#X connect 80 0 8 0;
#X connect 81 0 80 1;
#X connect 82 0 80 1;
#X connect 83 0 80 1;
#X connect 84 0 80 1;
#X connect 87 0 88 0;
#X connect 89 0 87 1;
#X connect 90 0 0 0;
#X connect 90 1 77 0;
#X connect 91 0 14 0;
#X connect 92 0 91 1;
