#N canvas 171 87 662 605 10;
#X obj 93 53 inlet~;
#X floatatom 225 132 5 0 0 0 - - -;
#X floatatom 310 132 5 0 0 0 - - -;
#X obj 225 48 inlet;
#X obj 312 52 inlet;
#X obj 452 37 loadbang;
#X text 311 23 depth;
#X text 223 25 freq;
#X obj 96 536 outlet~;
#X obj 148 214 +~;
#X floatatom 385 134 5 0 0 0 - - -;
#X obj 148 241 delwrite~ \$0-frg 100;
#X obj 97 414 +~;
#X obj 97 447 *~ 0.3;
#X obj 145 276 osc~ 0.1;
#X obj 148 336 +~ 10;
#X obj 149 370 vd~ \$0-frg;
#X obj 452 61 \$1 \$2 \$3;
#X obj 452 86 unpack 0 0 0;
#X obj 377 55 inlet;
#X text 376 26 feedback;
#X obj 146 305 *~;
#X obj 226 164 toLine~ 100;
#X obj 311 163 toLine~ 20;
#X obj 385 165 toLine~ 20;
#X connect 0 0 9 0;
#X connect 0 0 12 0;
#X connect 1 0 22 0;
#X connect 2 0 23 0;
#X connect 3 0 1 0;
#X connect 4 0 2 0;
#X connect 5 0 17 0;
#X connect 9 0 11 0;
#X connect 10 0 24 0;
#X connect 12 0 13 0;
#X connect 13 0 8 0;
#X connect 14 0 21 0;
#X connect 15 0 16 0;
#X connect 16 0 12 1;
#X connect 17 0 18 0;
#X connect 18 0 1 0;
#X connect 18 1 2 0;
#X connect 18 2 10 0;
#X connect 19 0 10 0;
#X connect 21 0 15 0;
#X connect 22 0 14 0;
#X connect 23 0 21 1;
#X connect 24 0 9 1;
