#N canvas 404 121 566 347 10;
#X obj 30 44 inlet~;
#X obj 29 301 outlet~;
#X obj 30 86 delwrite~ \$0-del 2000;
#X obj 27 152 delread~ \$0-del \$1;
#X floatatom 196 87 5 0 0 0 - - -;
#X obj 195 37 inlet;
#X floatatom 291 85 5 0 0 0 - - -;
#X obj 56 178 *~ \$2;
#X obj 290 35 inlet;
#X obj 291 119 clip 0 1;
#X obj 194 118 clip 0 2000;
#X text 195 17 delay time;
#X text 288 17 decay;
#X obj 404 89 \$3;
#X obj 404 65 loadbang;
#X obj 151 233 *~ 0;
#X text 403 46 if 1 = marge bypass;
#X obj 99 253 *~ 0.5;
#X obj 151 255 *~ 0.5;
#X obj 30 230 *~ 1;
#X obj 377 119 == 1;
#X obj 101 229 *~ 0;
#X obj 414 121 != 1;
#X connect 0 0 2 0;
#X connect 0 0 15 0;
#X connect 3 0 7 0;
#X connect 3 0 19 0;
#X connect 3 0 21 0;
#X connect 4 0 10 0;
#X connect 5 0 4 0;
#X connect 6 0 9 0;
#X connect 7 0 2 0;
#X connect 8 0 6 0;
#X connect 9 0 7 1;
#X connect 10 0 3 0;
#X connect 13 0 20 0;
#X connect 13 0 22 0;
#X connect 14 0 13 0;
#X connect 15 0 18 0;
#X connect 17 0 1 0;
#X connect 18 0 1 0;
#X connect 19 0 1 0;
#X connect 20 0 15 1;
#X connect 20 0 21 1;
#X connect 21 0 17 0;
#X connect 22 0 19 1;
