#N canvas 619 105 587 598 10;
#X obj 39 30 inlet~;
#X obj 155 32 inlet~;
#X obj 381 36 inlet;
#X obj 47 549 outlet~;
#X obj 142 549 outlet~;
#X obj 50 509 *~;
#X obj 144 510 *~;
#X obj 238 453 line~;
#X msg 238 424 \$1 20;
#X obj 288 454 line~;
#X msg 288 425 \$1 20;
#X obj 262 233 > 0;
#X obj 260 204 t f f;
#X obj 261 257 + 1;
#X obj 238 385 expr -$f1+1;
#X obj 318 385 + 1;
#X floatatom 382 74 5 -1 1 0 - - -;
#X obj 260 279 gate 2;
#X obj 294 316 t f b;
#X obj 240 315 t f b;
#X msg 318 342 1;
#X msg 263 341 1;
#X obj 256 26 inlet;
#X floatatom 255 57 5 -1 1 0 - - -;
#N canvas 26 54 674 539 efx 0;
#X obj 83 15 inlet~;
#X obj 84 430 outlet~;
#X obj 178 13 inlet;
#X floatatom 177 43 5 0 0 0 - - -;
#X obj 80 177 *~;
#X obj 117 179 *~;
#X obj 136 74 expr -$f1+1;
#X floatatom 390 190 5 0 0 0 - vb_fq -;
#X floatatom 389 215 5 0 0 0 - vb_dp -;
#X obj 118 381 mono_delay;
#X obj 116 220 *~;
#X obj 147 220 *~;
#X obj 135 125 line~;
#X msg 135 102 \$1 20;
#X obj 183 125 line~;
#X msg 185 101 \$1 20;
#X obj 188 295 flanger;
#X floatatom 389 356 5 0 0 0 - del_tm -;
#X floatatom 389 381 5 0 0 0 - del_dec -;
#X floatatom 396 260 5 0 0 0 - fl_fq -;
#X floatatom 393 283 5 0 0 0 - fl_dp -;
#X floatatom 392 305 5 0 0 0 - fl_fb -;
#X obj 237 147 line~;
#X msg 237 122 \$1 20;
#X obj 282 150 line~;
#X msg 282 125 \$1 20;
#X floatatom 287 52 5 0 0 0 - - -;
#X obj 118 293 vibrate;
#X obj 236 95 expr -$f1+1;
#X obj 333 147 line;
#X obj 333 74 tgl 15 0 empty empty empty 17 7 0 10 -262144 -1 -1 0
1;
#X obj 340 4 loadbang;
#X msg 338 27 1;
#X obj 335 51 metro 5000;
#X obj 333 94 sel 0 1;
#X msg 333 119 1 4999;
#X msg 382 119 0 4999;
#X text 426 357 del time;
#X text 425 381 decay;
#X text 434 284 depth;
#X text 436 261 freq;
#X text 438 300 feedback;
#X text 428 211 depth;
#X text 429 191 freq;
#X connect 0 0 4 0;
#X connect 0 0 5 0;
#X connect 2 0 3 0;
#X connect 3 0 6 0;
#X connect 3 0 15 0;
#X connect 4 0 1 0;
#X connect 5 0 10 0;
#X connect 5 0 11 0;
#X connect 6 0 13 0;
#X connect 7 0 27 1;
#X connect 8 0 27 2;
#X connect 9 0 1 0;
#X connect 10 0 27 0;
#X connect 11 0 16 0;
#X connect 12 0 4 1;
#X connect 13 0 12 0;
#X connect 14 0 5 1;
#X connect 15 0 14 0;
#X connect 16 0 9 0;
#X connect 17 0 9 1;
#X connect 18 0 9 2;
#X connect 19 0 16 1;
#X connect 20 0 16 2;
#X connect 21 0 16 3;
#X connect 22 0 10 1;
#X connect 23 0 22 0;
#X connect 24 0 11 1;
#X connect 25 0 24 0;
#X connect 26 0 25 0;
#X connect 26 0 28 0;
#X connect 27 0 9 0;
#X connect 28 0 23 0;
#X connect 29 0 26 0;
#X connect 30 0 34 0;
#X connect 31 0 32 0;
#X connect 32 0 33 0;
#X connect 33 0 30 0;
#X connect 34 0 35 0;
#X connect 34 1 36 0;
#X connect 35 0 29 0;
#X connect 36 0 29 0;
#X restore 39 210 pd efx;
#N canvas 106 153 674 539 efx 0;
#X obj 83 15 inlet~;
#X obj 84 430 outlet~;
#X obj 178 13 inlet;
#X floatatom 177 43 5 0 0 0 - - -;
#X obj 80 177 *~;
#X obj 117 179 *~;
#X obj 136 74 expr -$f1+1;
#X floatatom 390 190 5 0 0 0 - vb_fq -;
#X floatatom 389 215 5 0 0 0 - vb_dp -;
#X obj 118 381 mono_delay;
#X obj 116 220 *~;
#X obj 147 220 *~;
#X obj 135 125 line~;
#X msg 135 102 \$1 20;
#X obj 183 125 line~;
#X msg 185 101 \$1 20;
#X obj 188 295 flanger;
#X floatatom 389 356 5 0 0 0 - del_tm -;
#X floatatom 389 381 5 0 0 0 - del_dec -;
#X floatatom 396 260 5 0 0 0 - fl_fq -;
#X floatatom 393 283 5 0 0 0 - fl_dp -;
#X floatatom 392 305 5 0 0 0 - fl_fb -;
#X obj 237 147 line~;
#X msg 237 122 \$1 20;
#X obj 282 150 line~;
#X msg 282 125 \$1 20;
#X floatatom 287 52 5 0 0 0 - - -;
#X obj 118 293 vibrate;
#X obj 236 95 expr -$f1+1;
#X obj 333 147 line;
#X obj 333 74 tgl 15 0 empty empty empty 17 7 0 10 -262144 -1 -1 0
1;
#X obj 340 4 loadbang;
#X msg 338 27 1;
#X obj 335 51 metro 5000;
#X obj 333 94 sel 0 1;
#X msg 333 119 1 4999;
#X msg 382 119 0 4999;
#X text 426 357 del time;
#X text 425 381 decay;
#X text 434 284 depth;
#X text 436 261 freq;
#X text 438 300 feedback;
#X text 428 211 depth;
#X text 429 191 freq;
#X connect 0 0 4 0;
#X connect 0 0 5 0;
#X connect 2 0 3 0;
#X connect 3 0 6 0;
#X connect 3 0 15 0;
#X connect 4 0 1 0;
#X connect 5 0 10 0;
#X connect 5 0 11 0;
#X connect 6 0 13 0;
#X connect 7 0 27 1;
#X connect 8 0 27 2;
#X connect 9 0 1 0;
#X connect 10 0 27 0;
#X connect 11 0 16 0;
#X connect 12 0 4 1;
#X connect 13 0 12 0;
#X connect 14 0 5 1;
#X connect 15 0 14 0;
#X connect 16 0 9 0;
#X connect 17 0 9 1;
#X connect 18 0 9 2;
#X connect 19 0 16 1;
#X connect 20 0 16 2;
#X connect 21 0 16 3;
#X connect 22 0 10 1;
#X connect 23 0 22 0;
#X connect 24 0 11 1;
#X connect 25 0 24 0;
#X connect 26 0 25 0;
#X connect 26 0 28 0;
#X connect 27 0 9 0;
#X connect 28 0 23 0;
#X connect 29 0 26 0;
#X connect 30 0 34 0;
#X connect 31 0 32 0;
#X connect 32 0 33 0;
#X connect 33 0 30 0;
#X connect 34 0 35 0;
#X connect 34 1 36 0;
#X connect 35 0 29 0;
#X connect 36 0 29 0;
#X restore 148 204 pd efx;
#X floatatom 397 199 5 0 0 0 - - vb_fq;
#X floatatom 398 222 5 0 0 0 - - vb_dp;
#X floatatom 397 269 5 0 0 0 - - fl_fq;
#X floatatom 396 291 5 0 0 0 - - fl_dp;
#X floatatom 399 314 5 0 0 0 - - fl_fb;
#X floatatom 395 368 5 0 0 0 - - del_tm;
#X floatatom 395 390 5 0 0 0 - - del_dec;
#X text 413 143 Effector;
#X text 436 367 del time;
#X text 435 391 decay;
#X text 444 294 depth;
#X text 446 271 freq;
#X text 448 310 feedback;
#X text 438 221 depth;
#X text 439 201 freq;
#X text 396 177 Vibrate;
#X text 397 247 Flanger;
#X text 395 347 Delay;
#X msg 395 432 \; vb_fq 20 \; vb_dp 1 \;;
#X connect 0 0 24 0;
#X connect 1 0 25 0;
#X connect 2 0 16 0;
#X connect 5 0 3 0;
#X connect 6 0 4 0;
#X connect 7 0 5 1;
#X connect 8 0 7 0;
#X connect 9 0 6 1;
#X connect 10 0 9 0;
#X connect 11 0 13 0;
#X connect 12 0 17 1;
#X connect 12 1 11 0;
#X connect 13 0 17 0;
#X connect 14 0 8 0;
#X connect 15 0 10 0;
#X connect 16 0 12 0;
#X connect 17 0 19 0;
#X connect 17 1 18 0;
#X connect 18 0 14 0;
#X connect 18 1 20 0;
#X connect 19 0 15 0;
#X connect 19 1 21 0;
#X connect 20 0 10 0;
#X connect 21 0 8 0;
#X connect 22 0 23 0;
#X connect 23 0 24 1;
#X connect 23 0 25 1;
#X connect 24 0 5 0;
#X connect 25 0 6 0;
