#N canvas 569 178 297 316 10;
#X obj 32 29 inlet;
#X obj 32 265 outlet;
#X obj 32 144 clip;
#X obj 106 48 \$1 \$2 \$3 \$4;
#X obj 106 24 loadbang;
#X obj 106 72 unpack 0 0 0 0;
#X floatatom 106 98 5 0 0 0 - - -;
#X floatatom 139 98 5 0 0 0 - - -;
#X floatatom 176 98 5 0 0 0 - - -;
#X floatatom 209 98 5 0 0 0 - - -;
#X obj 32 169 expr ($f1-$f2) / ($f3-$f2);
#X obj 32 203 expr ($f1 * ($f3-$f2)) + $f2;
#X connect 0 0 2 0;
#X connect 2 0 10 0;
#X connect 3 0 5 0;
#X connect 4 0 3 0;
#X connect 5 0 6 0;
#X connect 5 1 7 0;
#X connect 5 2 8 0;
#X connect 5 3 9 0;
#X connect 6 0 2 1;
#X connect 6 0 10 1;
#X connect 7 0 2 2;
#X connect 7 0 10 2;
#X connect 8 0 11 1;
#X connect 9 0 11 2;
#X connect 10 0 11 0;
#X connect 11 0 1 0;
