#N canvas 656 161 749 571 10;
#N canvas 0 22 450 278 (subpatch) 0;
#X array \$0-scope 500 float 0;
#X coords 0 1 499 -1 100 50 1 0 0;
#X restore 50 70 graph;
#X obj 45 162 metro 20;
#X obj 99 53 tgl 15 0 empty empty empty 17 7 0 10 -262144 -1 -1 1 1
;
#X obj 183 19 loadbang;
#X obj 111 161 inlet~;
#X obj 44 218 tabwrite~ \$0-scope;
#X text 119 31 SIZE;
#X floatatom 116 52 5 0 0 0 - - -;
#X obj 188 164 pack f f;
#X msg 189 201 \; \$2-scope resize \$1;
#X obj 268 74 bng 15 250 50 0 empty empty empty 17 7 0 10 -262144 -1
-1;
#X obj 232 129 float \$0;
#X msg 181 58 set 500;
#X text 111 22 comment;
#X obj 111 198 outlet~;
#X floatatom 88 133 5 0 0 0 - - -;
#X connect 1 0 5 0;
#X connect 2 0 1 0;
#X connect 3 0 2 0;
#X connect 3 0 10 0;
#X connect 3 0 12 0;
#X connect 4 0 5 0;
#X connect 4 0 14 0;
#X connect 7 0 8 0;
#X connect 8 0 9 0;
#X connect 10 0 11 0;
#X connect 11 0 8 1;
#X connect 12 0 7 0;
#X connect 15 0 1 1;
#X coords 0 -1 1 1 100 70 2 50 50;
