#N canvas 826 378 333 256 10;
#X obj 52 212 outlet~;
#X obj 52 176 line~;
#X obj 117 54 \$1;
#X obj 117 29 loadbang;
#X floatatom 51 55 5 0 0 0 - - -;
#X obj 52 7 inlet;
#X msg 51 137 \$1 0;
#X msg 117 87 set \, adddollar 1 \, add2 \$1;
#X connect 1 0 0 0;
#X connect 2 0 7 0;
#X connect 3 0 2 0;
#X connect 4 0 6 0;
#X connect 5 0 4 0;
#X connect 6 0 1 0;
#X connect 7 0 6 0;
