#N canvas 292 116 389 541 10;
#X floatatom 141 257 10 0 0 0 - - -;
#X obj 141 309 line~;
#X obj 141 336 vd~ \$0-del;
#X obj 141 32 osc~;
#X obj 142 181 + 1;
#X obj 140 65 snapshot~;
#X obj 278 180 * 0.5;
#X obj 142 225 *;
#X obj 53 -41 delwrite~ \$0-del 1000;
#X msg 140 286 \$1 80;
#X obj 52 -71 inlet~;
#X obj 71 402 outlet~;
#X obj 324 -68 inlet;
#X obj 245 -66 inlet;
#X obj 67 27 bang~;
#X connect 0 0 9 0;
#X connect 1 0 2 0;
#X connect 2 0 11 0;
#X connect 3 0 5 0;
#X connect 4 0 7 0;
#X connect 5 0 4 0;
#X connect 6 0 7 1;
#X connect 7 0 0 0;
#X connect 9 0 1 0;
#X connect 10 0 8 0;
#X connect 12 0 6 0;
#X connect 13 0 3 0;
#X connect 14 0 5 0;
#X coords 0 541 1 540 10 50 0;
