#N canvas 132 45 750 432 10;
#N canvas 0 22 450 278 (subpatch) 0;
#X array sndR 1.44178e+06 float 2;
#X coords 0 1 1.44178e+06 -1 200 60 1 0 0;
#X restore 418 323 graph;
#X obj 423 170 soundfiler;
#X obj 70 106 phasor~;
#N canvas 0 22 450 278 (subpatch) 0;
#X array sndL 1.44178e+06 float 2;
#X coords 0 1 1.44178e+06 -1 200 60 1 0 0;
#X restore 417 235 graph;
#X floatatom 423 195 10 0 0 0 - - -;
#X msg 424 136 read -resize sample.wav sndL sndR;
#X obj 419 68 loadbang;
#X obj 68 255 tabread~ sndL;
#X obj 157 255 tabread~ sndR;
#X floatatom 70 73 10 0 0 0 - - -;
#X obj 71 199 *~ 1.44178e+06;
#X text 147 70 0.03125 = 1 / length;
#X obj 67 324 outlet~;
#X obj 159 321 outlet~;
#X obj 69 19 inlet;
#X obj 71 45 * 0.05;
#X obj 244 163 snapshot~;
#X obj 249 191 hsl 128 15 0 1 0 0 empty empty empty -2 -8 0 10 -262144
-1 -1 5536 1;
#X obj 245 138 metro 20;
#X obj 245 117 tgl 15 0 empty empty empty 17 7 0 10 -262144 -1 -1 1
1;
#X text 246 205 0;
#X text 369 206 1;
#X connect 1 0 4 0;
#X connect 2 0 10 0;
#X connect 2 0 16 0;
#X connect 5 0 1 0;
#X connect 6 0 5 0;
#X connect 6 0 19 0;
#X connect 7 0 12 0;
#X connect 8 0 13 0;
#X connect 9 0 2 0;
#X connect 10 0 7 0;
#X connect 10 0 8 0;
#X connect 14 0 15 0;
#X connect 15 0 9 0;
#X connect 16 0 17 0;
#X connect 18 0 16 0;
#X connect 19 0 18 0;
