#N canvas 163 39 901 660 10;
#X obj 138 50 hsl 128 15 -1 1 0 0 empty empty empty -2 -8 0 10 -262144
-1 -1 5000 1;
#X floatatom 135 74 5 0 0 0 - - -;
#X obj 86 115 f;
#X obj 30 74 metro 17;
#X obj 30 50 tgl 15 0 empty empty empty 17 7 0 10 -262144 -1 -1 0 1
;
#X obj 87 164 +;
#X floatatom 130 187 5 0 0 0 - - -;
#X obj 127 158 clip -1 1;
#X obj 135 237 hsl 128 15 -1 1 0 0 empty empty empty -2 -8 0 10 -262144
-1 -1 0 1;
#X text 135 28 SteerAngle;
#X text 140 219 Pan;
#X obj 439 51 hsl 128 15 -1 1 0 0 empty empty empty -2 -8 0 10 -262144
-1 -1 300 1;
#X floatatom 436 75 5 0 0 0 - - -;
#X obj 387 130 f;
#X obj 331 75 metro 17;
#X obj 331 51 tgl 15 0 empty empty empty 17 7 0 10 -262144 -1 -1 0
1;
#X obj 388 179 +;
#X floatatom 431 202 5 0 0 0 - - -;
#X obj 428 173 clip -1 1;
#X obj 436 252 hsl 128 15 -1 1 0 0 empty empty empty -2 -8 0 10 -262144
-1 -1 0 1;
#X text 436 29 SteerAngle;
#X text 441 234 Pan;
#X obj 436 98 * 0.02;
#X obj 132 261 s \$0-pan;
#X obj 433 278 s \$0-pan;
#X obj 332 365 hsl 128 15 -1 1 0 0 empty empty empty -2 -8 0 10 -262144
-1 -1 3300 1;
#X floatatom 329 389 5 0 0 0 - - -;
#X obj 280 444 f;
#X obj 224 389 metro 17;
#X obj 224 365 tgl 15 0 empty empty empty 17 7 0 10 -262144 -1 -1 1
1;
#X obj 281 513 +;
#X floatatom 324 536 5 0 0 0 - - -;
#X obj 321 507 clip -1 1;
#X obj 329 586 hsl 128 15 -1 1 0 0 empty empty empty -2 -8 0 10 -262144
-1 -1 9424 1;
#X text 329 343 SteerAngle;
#X text 334 568 Pan;
#X obj 329 412 * 0.02;
#X obj 326 612 s \$0-pan;
#X obj 281 478 * 0;
#X obj 74 563 vsl 15 40 0 1 0 0 empty empty empty 0 -9 0 10 -262144
-1 -1 0 1;
#X obj 126 402 timer;
#X obj 74 538 line;
#X obj 73 370 t b b b;
#X floatatom 126 424 10 0 0 0 - - -;
#X floatatom 129 495 5 0 0 0 - - -;
#X obj 130 522 pack;
#X obj 128 447 t f f;
#X msg 70 486 0 2000;
#X obj 70 463 del 1500;
#X obj 71 343 bng 15 250 50 0 empty empty empty 17 7 0 10 -262144 -1
-1;
#X floatatom 74 611 5 0 0 0 - - -;
#X text 112 612 speed;
#X obj 129 471 ../p/scale 50 2000 1 0;
#X obj 676 566 output~;
#X obj 757 499 r \$0-pan;
#X obj 673 531 ../p/panning_fx;
#X obj 557 545 noise~;
#X obj 558 569 *~;
#X obj 602 547 tgl 15 0 empty empty empty 17 7 0 10 -262144 -1 -1 0
1;
#X obj 602 498 tgl 15 0 empty empty empty 17 7 0 10 -262144 -1 -1 0
1;
#X obj 601 519 metro 50;
#X obj 679 386 pedal2play;
#X obj 72 635 s \$0-speed;
#X obj 671 341 r \$0-speed;
#X connect 0 0 1 0;
#X connect 1 0 2 1;
#X connect 2 0 5 0;
#X connect 3 0 2 0;
#X connect 4 0 3 0;
#X connect 5 0 7 0;
#X connect 6 0 5 1;
#X connect 6 0 8 0;
#X connect 7 0 6 0;
#X connect 8 0 23 0;
#X connect 11 0 12 0;
#X connect 12 0 22 0;
#X connect 13 0 16 0;
#X connect 14 0 13 0;
#X connect 15 0 14 0;
#X connect 16 0 18 0;
#X connect 17 0 16 1;
#X connect 17 0 19 0;
#X connect 18 0 17 0;
#X connect 19 0 24 0;
#X connect 22 0 13 1;
#X connect 25 0 26 0;
#X connect 26 0 36 0;
#X connect 27 0 38 0;
#X connect 28 0 27 0;
#X connect 29 0 28 0;
#X connect 30 0 32 0;
#X connect 31 0 30 1;
#X connect 31 0 33 0;
#X connect 32 0 31 0;
#X connect 33 0 37 0;
#X connect 36 0 27 1;
#X connect 38 0 30 0;
#X connect 39 0 50 0;
#X connect 40 0 43 0;
#X connect 41 0 39 0;
#X connect 42 0 48 0;
#X connect 42 1 40 0;
#X connect 42 2 40 1;
#X connect 43 0 46 0;
#X connect 44 0 45 0;
#X connect 45 0 41 0;
#X connect 46 0 52 0;
#X connect 46 1 45 1;
#X connect 47 0 41 0;
#X connect 48 0 47 0;
#X connect 49 0 42 0;
#X connect 50 0 38 1;
#X connect 50 0 62 0;
#X connect 52 0 44 0;
#X connect 54 0 55 3;
#X connect 55 0 53 0;
#X connect 55 1 53 1;
#X connect 56 0 57 0;
#X connect 57 0 55 0;
#X connect 57 0 55 1;
#X connect 58 0 57 1;
#X connect 59 0 60 0;
#X connect 60 0 58 0;
#X connect 61 0 55 0;
#X connect 61 1 55 1;
#X connect 63 0 61 0;
